<svg xmlns="http://www.w3.org/2000/svg" viewBox="0 0 35 35" class="as-svgicon as-svgicon-personalization as-svgicon-base" role="img" aria-hidden="true" width="35px" height="35px">
				<rect width="35" height="35" fill="none"/>
				<path d="M17.5,6.1A11.4,11.4,0,1,1,6.1,17.5,11.41294,11.41294,0,0,1,17.5,6.1m0-1.1A12.5,12.5,0,1,0,30,17.5,12.5,12.5,0,0,0,17.5,5Z"/>
				<path d="M9.0498,19.6626a.51614.51614,0,0,1,.65821-.541A25.70105,25.70105,0,0,0,17.4873,20.3208a25.68829,25.68829,0,0,0,7.77735-1.19922.52156.52156,0,0,1,.66015.541,8.34671,8.34671,0,0,1-8.4375,7.35547A8.35447,8.35447,0,0,1,9.0498,19.6626Zm15.2129,2.584a7.008,7.008,0,0,0,.73828-2.14941,26.8936,26.8936,0,0,1-7.51368,1.06738,26.91758,26.91758,0,0,1-7.51562-1.06738A7.086,7.086,0,0,0,10.71,22.24658a22.4677,22.4677,0,0,0,6.77734,1.041A22.45514,22.45514,0,0,0,24.2627,22.24658ZM12.332,14.74463a1.64578,1.64578,0,0,1,1.48926-1.75391,1.64676,1.64676,0,0,1,1.50391,1.75391,1.659,1.659,0,0,1-1.50391,1.7666A1.65823,1.65823,0,0,1,12.332,14.74463Zm7.31738,0A1.647,1.647,0,0,1,21.165,12.99072a1.64583,1.64583,0,0,1,1.49023,1.75391,1.65827,1.65827,0,0,1-1.49023,1.7666A1.65918,1.65918,0,0,1,19.64941,14.74463Z"/>
			</svg>